PathFileType	4	(X/Y/Z)	Patient4_TMGait_0pt4_02_left_12.trc.trc
DataRate	CameraRate	NumFrames	NumMarkers	Units	OrigDataRate	OrigDataStartFrame	OrigNumFrames
74.866310160428	74.866310160428	6	33	mm	74.866310160428	106	       141
Frame#	Time	Sacral			L.Shoulder			Chest			R.Shoulder			Neck			R.ASIS			L.ASIS			R.Thigh.Superior			R.Thigh.Lateral			R.Thigh.Inferior			R.Patella			L.Thigh.Superior			L.Thigh.Lateral			L.Thigh.Inferior			L.Patella			L.Shank.Superior			L.Shank.Lateral			L.Shank.Inferior			R.Shank.Superior			R.Shank.Lateral			R.Shank.Inferior			R.Heel			R.Midfoot.Superior			R.Midfoot.Lateral			R.Toe			L.Heel			L.Midfoot.Lateral			L.Midfoot.Superior			L.Toe			L.Elbow			L.Wrist			R.Elbow			R.Wrist			
		X1	Y1	Z1	X2	Y2	Z2	X3	Y3	Z3	X4	Y4	Z4	X5	Y5	Z5	X6	Y6	Z6	X7	Y7	Z7	X8	Y8	Z8	X9	Y9	Z9	X10	Y10	Z10	X11	Y11	Z11	X12	Y12	Z12	X13	Y13	Z13	X14	Y14	Z14	X15	Y15	Z15	X16	Y16	Z16	X17	Y17	Z17	X18	Y18	Z18	X19	Y19	Z19	X20	Y20	Z20	X21	Y21	Z21	X22	Y22	Z22	X23	Y23	Z23	X24	Y24	Z24	X25	Y25	Z25	X26	Y26	Z26	X27	Y27	Z27	X28	Y28	Z28	X29	Y29	Z29	X30	Y30	Z30	X31	Y31	Z31	X32	Y32	Z32	X33	Y33	Z33	

106	17.402500000000	860.593242769807	1008.653598867940	520.073181079533	1031.682003363839	1425.947901823016	307.942191026496	1149.350901290589	1364.353274653996	461.271267703686	1084.912240890184	1448.634094499940	638.581389678205	1036.047374727342	1496.089994288564	460.032518189990	1100.086400710933	942.990699050965	614.815869909757	1059.182916941589	966.448475783350	343.546706447775	1130.236170469455	737.956884525949	580.581509878126	1047.433994952247	631.878621310383	646.348161170630	1115.136550338544	577.002330581500	560.662685058284	1110.480007452162	489.493718490148	565.785042473193	1148.584911338663	790.499773155094	367.407136008716	1107.141444479250	662.019546895072	289.445316918272	1216.573063833477	607.418308833786	345.195378379723	1239.919250650857	528.098651963839	336.278111930679	1197.450004349581	453.519604708498	326.496605847421	1082.703090441852	360.559914249842	281.721383968181	1129.482572001568	234.812582881544	327.951862832613	1079.376205128580	401.539668777628	574.070093112321	1007.540435550416	300.739614955338	638.922027770541	1040.581400963957	204.750810261657	572.646294055906	899.430281166729	42.822536070577	549.804857871980	1071.618621654702	96.705151080203	579.525456051848	984.824909665653	37.425606270029	621.993642432988	1192.866907834010	42.828482941754	604.217209594274	989.187823250989	95.918844739970	373.074986698008	1052.363297235303	80.938902096414	286.306989716074	1145.877584839697	131.055636421602	302.147063972196	1259.120068137352	62.932058442920	260.899969633275	983.074909280786	1071.087267507688	205.939123162770	1076.924105286943	827.495935550509	172.283002918092	1121.912806427551	1126.818951344281	804.692268384533	1351.087693046343	1035.492101876246	740.616473106707	
107	17.415857142857	859.768456607275	1009.342224592719	521.791326361822	1030.555334395486	1425.927244414038	308.334792106089	1149.370095488143	1363.867304558860	460.580736347224	1086.988916990181	1448.601705717896	638.403348351075	1036.313481689587	1496.123377284466	460.184750211583	1099.451895116859	942.597327792201	614.258726569693	1056.647823553594	966.849687713962	343.280961354426	1127.673095999344	737.311331163860	579.720503061457	1044.659419703101	631.822188619579	646.408041949889	1111.129540733241	576.448520821223	560.246965005572	1105.900660368133	489.137530631338	565.621100097624	1145.403588866247	790.956524248062	367.549279582997	1104.651882961985	662.635964147062	289.180387463456	1213.413263197946	608.176642796759	346.510460704238	1238.322524541469	530.947773154088	337.005739208078	1199.735253355818	456.086568396828	326.631061336265	1091.459045603328	356.143736254695	280.953239985547	1146.209276420653	233.095632513089	327.085265781108	1074.719261672644	401.353722793726	574.092241103458	1002.795650921817	300.653103489813	639.024445661044	1035.433664848357	204.620383229931	572.698446877588	894.030442069107	42.817266194325	549.870778997920	1066.207632515273	96.605700688484	579.497006759961	979.450156032054	37.408109641737	622.050342680228	1187.479525451104	42.769889915870	604.275532372675	1015.285263770146	84.388116917310	371.526200607777	1079.703679689825	74.260152114508	284.827029327616	1169.667582639201	130.597471398618	300.991524885977	1287.589862457010	70.569060816418	259.838613676332	979.432145164628	1071.232996972054	207.009826564580	1067.950206044931	825.890578589857	172.612075280395	1130.030600297417	1127.444644713838	803.442463750193	1361.516916074580	1048.382790097859	733.805048473399	
108	17.429214285714	859.025066226312	1009.937803358877	523.275119230494	1029.482189530899	1425.885863795753	308.567127326804	1149.379087269572	1363.336881263746	459.756270185320	1088.959427854045	1448.466852333878	638.064416374586	1036.542150742814	1496.105963329322	460.205832267685	1098.817688305052	942.209682194037	613.547485112199	1054.262468348562	967.127723114102	342.846906653093	1125.134520743008	736.661565124295	578.859793588543	1041.886419955492	631.754685695655	646.428338120093	1107.170315985350	575.890264796506	559.845611328962	1101.362329528424	488.788785199540	565.476482518216	1142.150404596702	791.094582451574	367.761925237102	1102.261372861429	663.116409835109	288.702000401788	1210.011376431910	608.546908796531	347.952881790744	1236.411307539589	533.463038136253	337.888143286702	1201.579849626067	458.488794613859	326.950242764942	1100.082162988203	352.218785448226	279.961469135831	1161.972387983511	232.229955333411	326.454483065193	1070.112225049582	401.174866405640	574.112308821006	998.074269110359	300.582162201219	639.130103127656	1030.313340543273	204.497101656840	572.747039957710	888.634006473867	42.821514853816	549.937624274940	1060.803808411650	96.500752817214	579.466810448500	974.080324894505	37.393402023502	622.108999548142	1182.099450862272	42.695390586090	604.335131831787	1040.219544731056	74.858766316356	369.655053524521	1106.081591867312	69.193231593864	283.470610064489	1192.215182229169	131.215728046355	300.368304038400	1314.296674696128	78.949517913471	260.206661408422	975.924623938944	1071.379383216168	207.898158511122	1059.220492883814	824.438990829918	172.866959247857	1138.004390371644	1127.860515710991	801.618457871595	1371.045610904354	1060.832778372243	726.661955027637	
109	17.442571428571	858.341836000421	1010.454362996226	524.487715855536	1028.466808966258	1425.834427106308	308.627015841731	1149.367678485881	1362.781223126277	458.802224472678	1090.791127390005	1448.253939082055	637.561365921135	1036.723821770592	1496.051025524599	460.084595755597	1098.181006156536	941.839072818786	612.711306175397	1052.046803415049	967.294670593269	342.259650445834	1122.639689555359	736.009673859340	578.043414030935	1039.094393312346	631.678492306699	646.401387811678	1103.272758171460	575.330877293344	559.469968959448	1096.876702994118	488.447743898631	565.342660803031	1138.927500199528	791.004045243269	368.033886114312	1100.054589400652	663.502047117913	288.054194599382	1206.554091859245	608.628019467907	349.389551044038	1234.325087211553	535.660840778463	338.866359853573	1203.042987271150	460.713215405823	327.418038422555	1108.383155097904	348.888833537707	278.811134351363	1176.459084622412	232.162461588670	326.070689862138	1065.552520284840	401.000052246642	574.118028099741	993.368991448836	300.532714221401	639.230769660536	1025.222164074196	204.383314176748	572.788824830418	883.241501681555	42.835300678634	550.005006451847	1055.408155351338	96.398916349510	579.441014834121	968.712939931727	37.381773670848	622.169268685887	1176.724564820916	42.613667145372	604.395675968175	1063.389604646065	67.382019760144	367.572199279672	1130.879445698632	65.681452828786	282.313639156696	1213.052573593504	132.763979087042	300.281392440350	1338.748752015288	87.727612759695	261.948248386288	972.534863411956	1071.536649416342	208.594361727116	1050.793540977332	823.160691318010	173.045068051947	1145.793201597565	1128.087300028365	799.216405618635	1379.684906340982	1072.719545466780	719.235763165981	
110	17.455928571429	857.703186917167	1010.905396182907	525.394653099503	1027.510678701619	1425.782564480091	308.505255318125	1149.325865434226	1362.221714636846	457.725903622257	1092.452237279339	1447.990494233976	636.893585597580	1036.846280948645	1495.971415382896	459.810990166514	1097.543133423441	941.495344260741	611.780623873768	1050.024265642235	967.363640741927	341.536042078935	1120.201734733798	735.357960404251	577.300554645435	1036.265881568253	631.597466490050	646.317963602113	1099.446779882121	574.773648241899	559.126216246511	1092.451656942942	488.113768091560	565.210510011030	1135.847730743125	790.766676110091	368.331377225229	1098.071605052253	663.797822041855	287.306620894033	1203.215251650756	608.497876524348	350.685816386201	1232.184127355843	537.534730844486	339.876899327814	1204.169542846145	462.721174571096	327.982947527474	1116.128553891049	346.182302567348	277.598894855649	1189.386829284329	232.744515981554	325.920410704222	1061.035300309300	400.827039398143	574.099127521052	988.670923866975	300.509679614842	639.317538733166	1020.159570077396	204.281070081089	572.821818809851	877.852680762134	42.859006027436	550.071997261882	1050.021439776042	96.308396641591	579.425918159728	963.345789590524	37.373759449971	622.230316058144	1171.352170861553	42.532904526741	604.456518417437	1084.261693029549	61.833051787861	365.437437101347	1153.487753932437	63.534191463684	281.414677641537	1231.748378678885	134.991288513162	300.666673747981	1360.502548269938	96.481571533883	264.800793839016	969.247956794080	1071.715366767599	209.087419351210	1042.726598387197	822.069444576122	173.137233954983	1153.344231945951	1128.152685449381	796.238979874919	1387.454535960841	1083.941937106515	711.569571259052	
111	17.469285714286	857.103770628979	1011.297836556640	525.966232017947	1026.612205423634	1425.735696463617	308.195485491877	1149.244327718518	1361.678177368379	456.536514665773	1093.912481717307	1447.701759260378	636.063101959139	1036.894777332787	1495.876249141740	459.376756950859	1096.910793361473	941.185646621011	610.784567511650	1048.225555357651	967.343499426114	340.692088203534	1117.827364873949	734.708626599181	576.643262914163	1033.390420359446	631.515744051701	646.170217072973	1095.700159205104	574.220404106081	558.817538959188	1088.092754793035	487.784661349411	565.073987971681	1133.030983686426	790.445700219658	368.600540834515	1096.312778214757	663.972235403152	286.543159129121	1200.142398586994	608.204953774963	351.723294254101	1230.086457479458	539.056204840320	340.856437758598	1204.986731409554	464.448875778808	328.587362936713	1123.063045335172	344.055483163591	276.438379726757	1200.511220986289	233.754238949199	325.975831452835	1056.555935915571	400.653285255510	574.049813850833	983.971962281585	300.515522365070	639.382665673369	1015.123656667606	204.191115194218	572.845717191565	872.466790039354	42.892942535119	550.137192026384	1044.643931511626	96.235503865552	579.426656656223	957.976746813564	37.369745818756	622.290723199867	1165.979410845129	42.460361438634	604.516810733697	1102.386088326378	57.952054015342	363.443430094262	1173.334743247509	62.462487218953	280.815028161309	1247.922455730572	137.574060882077	301.412287704383	1379.173044142538	104.746544979024	268.348509356091	966.052283787261	1071.922422330693	209.366698615428	1035.073612735542	821.170268110286	173.127750673710	1160.595115782846	1128.085881599875	792.698540090755	1394.379486094113	1094.419861954609	703.701183364866	
